<?xml version="1.0" encoding="UTF-8"?>
<svg width="96" height="96" fill="none" version="1.1" viewBox="0 0 2.88 2.88" xmlns="http://www.w3.org/2000/svg">
 <g transform="matrix(.135 0 0 .135 -.18 -.18)" fill="#1c274c">
  <path d="m2 12c0-4.71 0-7.07 1.46-8.54 1.46-1.46 3.82-1.46 8.54-1.46 4.71 0 7.07 0 8.54 1.46 1.46 1.46 1.46 3.82 1.46 8.54 0 4.71 0 7.07-1.46 8.54-1.46 1.46-3.82 1.46-8.54 1.46-4.71 0-7.07 0-8.54-1.46-1.46-1.46-1.46-3.82-1.46-8.54z" opacity=".5"/>
  <path d="m21.5 2.47c0.293 0.293 0.293 0.768 0 1.06l-7.72 7.72h3.53c0.414 0 0.75 0.336 0.75 0.75s-0.336 0.75-0.75 0.75h-5.34c-0.414 0-0.75-0.336-0.75-0.75v-5.34c0-0.414 0.336-0.75 0.75-0.75s0.75 0.336 0.75 0.75v3.53l7.72-7.72c0.293-0.293 0.768-0.293 1.06 0z" clip-rule="evenodd" fill-rule="evenodd"/>
 </g>
</svg>
