<?xml version="1.0" encoding="UTF-8"?>
<svg width="96" height="96" version="1.1" viewBox="0 0 2.88 2.88" xmlns="http://www.w3.org/2000/svg">
 <path d="m0.09 1.49c0-0.613 0-0.92 0.191-1.11 0.191-0.191 0.497-0.191 1.11-0.191 0.613 0 0.92 0 1.11 0.191 0.191 0.191 0.191 0.497 0.191 1.11 0 0.613 0 0.92-0.191 1.11-0.191 0.191-0.497 0.191-1.11 0.191s-0.92 0-1.11-0.191c-0.191-0.191-0.191-0.497-0.191-1.11z" fill="#1c274c" opacity=".5" stroke-width=".13"/>
 <path d="m1.45 1.43c-0.0381-0.0381-0.0381-0.0999 0-0.138l1-1h-0.46c-0.0539 0-0.0976-0.0437-0.0976-0.0976 0-0.0539 0.0437-0.0976 0.0976-0.0976h0.695c0.0539 0 0.0976 0.0437 0.0976 0.0976v0.695c0 0.0539-0.0437 0.0976-0.0976 0.0976-0.0539 0-0.0976-0.0437-0.0976-0.0976v-0.46l-1 1c-0.0381 0.0381-0.0999 0.0381-0.138 0z" clip-rule="evenodd" fill="#1c274c" fill-rule="evenodd" stroke-width=".13"/>
</svg>
