<?xml version="1.0" encoding="UTF-8"?>
<svg width="96" height="96" version="1.1" viewBox="0 0 2.88 2.88" xmlns="http://www.w3.org/2000/svg">
 <path d="m0.09 1.44c0-0.636 0-0.955 0.198-1.15 0.198-0.198 0.516-0.198 1.15-0.198 0.636 0 0.955 0 1.15 0.198 0.198 0.198 0.198 0.516 0.198 1.15 0 0.636 0 0.955-0.198 1.15-0.198 0.198-0.516 0.198-1.15 0.198-0.636 0-0.955 0-1.15-0.198-0.198-0.198-0.198-0.516-0.198-1.15z" fill="#1c274c" opacity=".5" stroke-width=".135"/>
 <path d="m1.08 0.764c0.0379 0.0411 0.0354 0.105-0.00572 0.143l-0.113 0.105h0.764c0.088-2.7e-6 0.162-4e-6 0.221 0.00591 0.0623 0.00618 0.12 0.0196 0.173 0.0536 0.0441 0.0285 0.0817 0.0661 0.11 0.11 0.034 0.0526 0.0474 0.11 0.0536 0.173 0.0059 0.0595 0.0059 0.133 0.0059 0.221v0.0101c0 0.088 0 0.162-0.0059 0.221-0.00619 0.0623-0.0196 0.12-0.0536 0.173-0.0285 0.0441-0.0661 0.0817-0.11 0.11-0.0526 0.034-0.11 0.0474-0.173 0.0536-0.0596 0.00592-0.133 0.00592-0.221 0.0059h-0.618c-0.0559 0-0.101-0.0453-0.101-0.101 0-0.0559 0.0453-0.101 0.101-0.101h0.613c0.0944 0 0.158-1.08e-4 0.206-0.00491 0.0468-0.00463 0.0685-0.0128 0.0828-0.0221 0.02-0.013 0.0371-0.03 0.0501-0.0501 0.00929-0.0144 0.0175-0.0361 0.0221-0.0828 0.00479-0.0484 0.00491-0.112 0.00491-0.206 0-0.0944-1.22e-4 -0.158-0.00491-0.206-0.00463-0.0468-0.0129-0.0685-0.0221-0.0828-0.013-0.0201-0.03-0.0371-0.0501-0.0501-0.0144-0.00929-0.0361-0.0175-0.0828-0.0221-0.0484-0.00481-0.112-0.00491-0.206-0.00491h-0.759l0.113 0.105c0.0411 0.0379 0.0437 0.102 0.00572 0.143-0.0379 0.0411-0.102 0.0436-0.143 0.00573l-0.304-0.28c-0.0208-0.0192-0.0326-0.0461-0.0326-0.0744 0-0.0283 0.0118-0.0552 0.0326-0.0744l0.304-0.28c0.0411-0.0379 0.105-0.0354 0.143 0.00572z" clip-rule="evenodd" fill="#1c274c" fill-rule="evenodd" stroke-width=".135"/>
</svg>
