<?xml version="1.0" encoding="UTF-8"?>
<svg width="192" height="192" version="1.1" viewBox="0 0 192 192" xml:space="preserve" xmlns="http://www.w3.org/2000/svg">


<g transform="translate(1.41 1.41) scale(2.81)" fill="none">
	
	
	
	
	
	
	
	
	
	
	
	
	
	
	<g transform="translate(-.365 .201)"><circle cx="34" cy="35.1" r="31.8" fill="#e88102"/><circle cx="34" cy="31.8" r="26" fill="#f39e09"/><path d="m34 10.3c13.4 0 24.4 10.1 25.9 23.1 0.112-0.976 0.174-1.97 0.174-2.97 0-14.4-11.7-26-26-26-14.4 0-26 11.7-26 26 0 1.01 0.0632 2 0.174 2.97 1.48-13 12.5-23.1 25.9-23.1z" fill="#e88102" stroke-linecap="round"/><path d="m34 0c-17.6 0-31.8 14.2-31.8 31.8s14.2 31.8 31.8 31.8 31.8-14.2 31.8-31.8-14.2-31.8-31.8-31.8zm0 56.5c-13.6 0-24.6-11-24.6-24.6 0-13.6 11-24.6 24.6-24.6 13.6 0 24.6 11 24.6 24.6 0 13.6-11 24.6-24.6 24.6z" fill="#feec9a" stroke-linecap="round"/><path d="m34 0c-17.6 0-31.8 14.2-31.8 31.8s14.2 31.8 31.8 31.8 31.8-14.2 31.8-31.8-14.2-31.8-31.8-31.8zm0 56.5c-13.6 0-24.6-11-24.6-24.6 0-13.6 11-24.6 24.6-24.6 13.6 0 24.6 11 24.6 24.6 0 13.6-11 24.6-24.6 24.6z" fill="#fdd835" stroke-linecap="round"/><path d="m62.6 17.8-5.46 5.46c0.923 2.49 1.45 5.18 1.51 7.97l6.41-6.41c-0.552-2.46-1.38-4.81-2.47-7.02z" fill="#feec9a" stroke-linecap="round"/><path d="m33.4 56.4c-2.8-0.0647-5.48-0.59-7.97-1.51l-5.46 5.46c2.21 1.08 4.56 1.92 7.02 2.47z" fill="#feec9a" stroke-linecap="round"/><path d="m11.9 42.7-5.29 5.29c2.37 4.02 5.6 7.48 9.43 10.1l5.19-5.19c-4-2.44-7.25-5.99-9.33-10.2z" fill="#feec9a" stroke-linecap="round"/><path d="m50.2 4.39-5.29 5.29c4.23 2.08 7.78 5.32 10.2 9.33l5.19-5.19c-2.64-3.84-6.09-7.06-10.1-9.43z" fill="#feec9a" stroke-linecap="round"/><path d="m37.6 7.44c1.07 0.158 2.12 0.388 3.14 0.679l5.63-5.63c-0.91-0.384-1.84-0.726-2.79-1.03z" fill="#feec9a" stroke-linecap="round"/><path d="m4.71 44.2 5.63-5.63c-0.291-1.02-0.521-2.07-0.679-3.14l-5.97 5.97c0.3 0.951 0.641 1.88 1.03 2.79z" fill="#feec9a" stroke-linecap="round"/><path d="m35 26.5c0-4.02-3.27-7.3-7.3-7.3h-5.61c-1.23 0-2.23 0.999-2.23 2.23v10.1c0 0.0059 0.0015 0.0112 0.0015 0.0171 0 0.0059-0.0015 0.0112-0.0015 0.0171v10.1c0 1.23 0.999 2.23 2.23 2.23s2.23-0.999 2.23-2.23v-7.94h1.39l5.12 9.04c0.41 0.725 1.17 1.13 1.94 1.13 0.372 0 0.75-0.0937 1.1-0.291 1.07-0.607 1.45-1.97 0.842-3.04l-4.19-7.4c2.63-1.1 4.48-3.7 4.48-6.73zm-7.3 2.84h-3.38v-5.67h3.38c1.56 0 2.84 1.27 2.84 2.84 0 1.56-1.27 2.84-2.84 2.84z" fill="#e88102" stroke-linecap="round"/><path d="m45.2 28.8h-5.78c-1.23 0-2.23 0.999-2.23 2.23v10.4c0 0.0059 0.0015 0.0119 0.0015 0.0178 0 0.0059-0.0015 0.0119-0.0015 0.0178v8.41c0 1.23 0.999 2.23 2.23 2.23 1.23 0 2.23-0.999 2.23-2.23v-6.21h3.55c4.11-7.43e-4 7.45-3.34 7.45-7.45s-3.34-7.45-7.45-7.45zm0 10.4h-3.55v-5.98h3.55c1.65 0 2.99 1.34 2.99 2.99s-1.34 2.99-2.99 2.99z" fill="#e88102" stroke-linecap="round"/><path d="m35 23.6c0-4.02-3.27-7.3-7.3-7.3h-5.61c-1.23 0-2.23 0.999-2.23 2.23v10.1c0 0.0059 0.0015 0.0112 0.0015 0.0171 0 0.0059-0.0015 0.0112-0.0015 0.0171v10.1c0 1.23 0.999 2.23 2.23 2.23s2.23-0.999 2.23-2.23v-7.94h1.39l5.12 9.04c0.41 0.725 1.17 1.13 1.94 1.13 0.372 0 0.75-0.0937 1.1-0.291 1.07-0.607 1.45-1.97 0.842-3.04l-4.19-7.4c2.63-1.1 4.48-3.7 4.48-6.73zm-7.3 2.84h-3.38v-5.67h3.38c1.56 0 2.84 1.27 2.84 2.84 0 1.56-1.27 2.84-2.84 2.84z" fill="#fdd835" stroke-linecap="round"/><path d="m45.2 25.8h-5.78c-1.23 0-2.23 0.999-2.23 2.23v10.4c0 0.0059 0.0015 0.0119 0.0015 0.0178 0 0.0059-0.0015 0.0119-0.0015 0.0178v8.41c0 1.23 0.999 2.23 2.23 2.23 1.23 0 2.23-0.999 2.23-2.23v-6.21h3.55c4.11-7.44e-4 7.45-3.34 7.45-7.45s-3.34-7.45-7.45-7.45zm0 10.4h-3.55v-5.98h3.55c1.65 0 2.99 1.34 2.99 2.99 0 1.65-1.34 2.99-2.99 2.99z" fill="#fdd835" stroke-linecap="round"/></g>
</g>
</svg>
