<?xml version="1.0" encoding="UTF-8"?>
<svg width="512" height="512" version="1.1" viewBox="0 0 512 512" xml:space="preserve" xmlns="http://www.w3.org/2000/svg">


<g transform="matrix(5.53 0 0 5.53 7.26 7.26)">
	<circle cx="45" cy="47.2" r="42.8" fill="#e88102"/>
	<circle cx="45" cy="42.8" r="35" fill="#f39e09"/>
	<path d="m45 13.8c18 0 32.8 13.6 34.8 31 0.15-1.31 0.234-2.65 0.234-4 0-19.3-15.7-35-35-35s-35 15.7-35 35c0 1.35 0.085 2.69 0.234 4 1.99-17.4 16.8-31 34.8-31z" fill="#e88102" stroke-linecap="round"/>
	<path d="m45 0c-23.6 0-42.8 19.2-42.8 42.8s19.2 42.8 42.8 42.8 42.8-19.2 42.8-42.8-19.2-42.8-42.8-42.8zm0 75.9c-18.3 0-33.1-14.8-33.1-33.1s14.8-33.1 33.1-33.1 33.1 14.8 33.1 33.1-14.8 33.1-33.1 33.1z" fill="#feec9a" stroke-linecap="round"/>
	<path d="m45 0c-23.6 0-42.8 19.2-42.8 42.8s19.2 42.8 42.8 42.8 42.8-19.2 42.8-42.8-19.2-42.8-42.8-42.8zm0 75.9c-18.3 0-33.1-14.8-33.1-33.1s14.8-33.1 33.1-33.1 33.1 14.8 33.1 33.1-14.8 33.1-33.1 33.1z" fill="#fdd835" stroke-linecap="round"/>
	<path d="m83.4 23.9-7.34 7.34c1.24 3.35 1.95 6.96 2.04 10.7l8.62-8.62c-0.742-3.31-1.86-6.47-3.32-9.44z" fill="#feec9a" stroke-linecap="round"/>
	<path d="m44.2 75.9c-3.76-0.087-7.37-0.794-10.7-2.04l-7.34 7.34c2.97 1.46 6.13 2.58 9.44 3.32z" fill="#feec9a" stroke-linecap="round"/>
	<path d="m15.2 57.4-7.12 7.12c3.19 5.41 7.53 10.1 12.7 13.6l6.98-6.98c-5.38-3.28-9.75-8.05-12.5-13.7z" fill="#feec9a" stroke-linecap="round"/>
	<path d="m66.7 5.91-7.12 7.12c5.69 2.79 10.5 7.16 13.7 12.5l6.98-6.98c-3.54-5.16-8.19-9.5-13.6-12.7z" fill="#feec9a" stroke-linecap="round"/>
	<path d="m49.9 10c1.44 0.212 2.85 0.522 4.22 0.913l7.56-7.56c-1.22-0.517-2.48-0.976-3.76-1.38z" fill="#feec9a" stroke-linecap="round"/>
	<path d="m5.57 59.4 7.56-7.56c-0.391-1.37-0.701-2.78-0.913-4.22l-8.03 8.03c0.403 1.28 0.862 2.53 1.38 3.76z" fill="#feec9a" stroke-linecap="round"/>
	<path d="m46.4 35.7c0-5.41-4.4-9.81-9.81-9.81h-7.55c-1.66 0-3 1.34-3 3v13.6c0 8e-3 2e-3 0.015 2e-3 0.023s-2e-3 0.015-2e-3 0.023v13.6c0 1.66 1.34 3 3 3s3-1.34 3-3v-10.7h1.87l6.88 12.2c0.552 0.975 1.57 1.52 2.61 1.52 0.5 0 1.01-0.126 1.48-0.391 1.44-0.816 1.95-2.65 1.13-4.09l-5.64-9.96c3.54-1.48 6.03-4.98 6.03-9.05zm-9.81 3.81h-4.55v-7.63h4.55c2.1 0 3.81 1.71 3.81 3.81s-1.71 3.81-3.81 3.81z" fill="#e88102" stroke-linecap="round"/>
	<path d="m60 38.7h-7.77c-1.66 0-3 1.34-3 3v14c0 8e-3 2e-3 0.016 2e-3 0.024s-2e-3 0.016-2e-3 0.024v11.3c0 1.66 1.34 3 3 3s3-1.34 3-3v-8.35h4.77c5.52-1e-3 10-4.5 10-10s-4.49-10-10-10zm0 14h-4.77v-8.04h4.77c2.22 0 4.02 1.8 4.02 4.02s-1.8 4.02-4.02 4.02z" fill="#e88102" stroke-linecap="round"/>
	<path d="m46.4 31.7c0-5.41-4.4-9.81-9.81-9.81h-7.55c-1.66 0-3 1.34-3 3v13.6c0 8e-3 2e-3 0.015 2e-3 0.023s-2e-3 0.015-2e-3 0.023v13.6c0 1.66 1.34 3 3 3s3-1.34 3-3v-10.7h1.87l6.88 12.2c0.552 0.975 1.57 1.52 2.61 1.52 0.5 0 1.01-0.126 1.48-0.391 1.44-0.816 1.95-2.65 1.13-4.09l-5.64-9.96c3.54-1.48 6.03-4.98 6.03-9.05zm-9.81 3.81h-4.55v-7.63h4.55c2.1 0 3.81 1.71 3.81 3.81s-1.71 3.81-3.81 3.81z" fill="#fdd835" stroke-linecap="round"/>
	<path d="m60 34.7h-7.77c-1.66 0-3 1.34-3 3v14c0 8e-3 2e-3 0.016 2e-3 0.024s-2e-3 0.016-2e-3 0.024v11.3c0 1.66 1.34 3 3 3s3-1.34 3-3v-8.35h4.77c5.52-1e-3 10-4.5 10-10s-4.49-10-10-10zm0 14h-4.77v-8.04h4.77c2.22 0 4.02 1.8 4.02 4.02s-1.8 4.02-4.02 4.02z" fill="#fdd835" stroke-linecap="round"/>
</g>
</svg>
