<?xml version="1.0" encoding="UTF-8" standalone="no"?>
<!-- Uploaded to: SVG Repo, www.svgrepo.com, Generator: SVG Repo Mixer Tools -->

<svg
   width="96"
   height="96"
   viewBox="0 0 2.88 2.88"
   fill="none"
   version="1.1"
   id="svg2"
   sodipodi:docname="back.svg"
   inkscape:version="1.3.2 (091e20e, 2023-11-25, custom)"
   xmlns:inkscape="http://www.inkscape.org/namespaces/inkscape"
   xmlns:sodipodi="http://sodipodi.sourceforge.net/DTD/sodipodi-0.dtd"
   xmlns="http://www.w3.org/2000/svg"
   xmlns:svg="http://www.w3.org/2000/svg">
  <defs
     id="defs2" />
  <sodipodi:namedview
     id="namedview2"
     pagecolor="#ffffff"
     bordercolor="#000000"
     borderopacity="0.25"
     inkscape:showpageshadow="2"
     inkscape:pageopacity="0.0"
     inkscape:pagecheckerboard="0"
     inkscape:deskcolor="#d1d1d1"
     inkscape:zoom="3.7264527"
     inkscape:cx="60.647489"
     inkscape:cy="33.275613"
     inkscape:current-layer="svg2" />
  <path
     d="m 2.4628083,1.6317737 c 0.1059117,0 0.1917765,-0.085865 0.1917765,-0.1917765 0,-0.1059118 -0.085865,-0.1917765 -0.1917765,-0.1917765 H 0.88018146 L 1.319897,0.80848985 c 0.074895,-0.0748952 0.074895,-0.19630243 0,-0.27119755 -0.074895,-0.0748951 -0.1963025,-0.0748951 -0.2711977,0 L 0.2815856,1.3043985 c -0.0359644,0.035952 -0.0561703,0.08474 -0.0561703,0.1355987 0,0.050859 0.020206,0.099647 0.0561703,0.1355989 l 0.7671137,0.7671134 c 0.074895,0.074893 0.1963025,0.074893 0.2711977,0 0.074895,-0.074893 0.074895,-0.1963203 0,-0.2712129 L 0.88018146,1.6317737 Z"
     fill="#1c274c"
     id="path2"
     style="stroke-width:0.255702" />
</svg>
